<?xml version="1.0" encoding="utf-8" standalone="no"?>
<!DOCTYPE svg PUBLIC "-//W3C//DTD SVG 1.1//EN"
  "http://www.w3.org/Graphics/SVG/1.1/DTD/svg11.dtd">
<!-- Created with matplotlib (http://matplotlib.org/) -->
<svg height="288pt" version="1.1" viewBox="0 0 1008 288" width="1008pt" xmlns="http://www.w3.org/2000/svg" xmlns:xlink="http://www.w3.org/1999/xlink">
 <defs>
  <style type="text/css">
*{stroke-linecap:butt;stroke-linejoin:round;}
  </style>
 </defs>
 <g id="figure_1">
  <g id="patch_1">
   <path d="M 0 288 
L 1008 288 
L 1008 0 
L 0 0 
z
" style="fill:#ffffff;"/>
  </g>
  <g id="axes_1">
   <g id="patch_2">
    <path d="M 126 256.32 
L 295.826087 256.32 
L 295.826087 34.56 
L 126 34.56 
z
" style="fill:#ffffff;"/>
   </g>
   <g id="matplotlib.axis_1">
    <g id="xtick_1">
     <g id="line2d_1">
      <defs>
       <path d="M 0 0 
L 0 3.5 
" id="m042dc40e2e" style="stroke:#000000;stroke-width:0.8;"/>
      </defs>
      <g>
       <use style="stroke:#000000;stroke-width:0.8;" x="126" xlink:href="#m042dc40e2e" y="256.32"/>
      </g>
     </g>
     <g id="text_1">
      <!-- 0 -->
      <defs>
       <path d="M 31.78125 66.40625 
Q 24.171875 66.40625 20.328125 58.90625 
Q 16.5 51.421875 16.5 36.375 
Q 16.5 21.390625 20.328125 13.890625 
Q 24.171875 6.390625 31.78125 6.390625 
Q 39.453125 6.390625 43.28125 13.890625 
Q 47.125 21.390625 47.125 36.375 
Q 47.125 51.421875 43.28125 58.90625 
Q 39.453125 66.40625 31.78125 66.40625 
z
M 31.78125 74.21875 
Q 44.046875 74.21875 50.515625 64.515625 
Q 56.984375 54.828125 56.984375 36.375 
Q 56.984375 17.96875 50.515625 8.265625 
Q 44.046875 -1.421875 31.78125 -1.421875 
Q 19.53125 -1.421875 13.0625 8.265625 
Q 6.59375 17.96875 6.59375 36.375 
Q 6.59375 54.828125 13.0625 64.515625 
Q 19.53125 74.21875 31.78125 74.21875 
z
" id="DejaVuSans-30"/>
      </defs>
      <g transform="translate(122.81875 270.918437)scale(0.1 -0.1)">
       <use xlink:href="#DejaVuSans-30"/>
      </g>
     </g>
    </g>
    <g id="xtick_2">
     <g id="line2d_2">
      <g>
       <use style="stroke:#000000;stroke-width:0.8;" x="182.608696" xlink:href="#m042dc40e2e" y="256.32"/>
      </g>
     </g>
     <g id="text_2">
      <!-- 20 -->
      <defs>
       <path d="M 19.1875 8.296875 
L 53.609375 8.296875 
L 53.609375 0 
L 7.328125 0 
L 7.328125 8.296875 
Q 12.9375 14.109375 22.625 23.890625 
Q 32.328125 33.6875 34.8125 36.53125 
Q 39.546875 41.84375 41.421875 45.53125 
Q 43.3125 49.21875 43.3125 52.78125 
Q 43.3125 58.59375 39.234375 62.25 
Q 35.15625 65.921875 28.609375 65.921875 
Q 23.96875 65.921875 18.8125 64.3125 
Q 13.671875 62.703125 7.8125 59.421875 
L 7.8125 69.390625 
Q 13.765625 71.78125 18.9375 73 
Q 24.125 74.21875 28.421875 74.21875 
Q 39.75 74.21875 46.484375 68.546875 
Q 53.21875 62.890625 53.21875 53.421875 
Q 53.21875 48.921875 51.53125 44.890625 
Q 49.859375 40.875 45.40625 35.40625 
Q 44.1875 33.984375 37.640625 27.21875 
Q 31.109375 20.453125 19.1875 8.296875 
z
" id="DejaVuSans-32"/>
      </defs>
      <g transform="translate(176.246196 270.918437)scale(0.1 -0.1)">
       <use xlink:href="#DejaVuSans-32"/>
       <use x="63.623047" xlink:href="#DejaVuSans-30"/>
      </g>
     </g>
    </g>
    <g id="xtick_3">
     <g id="line2d_3">
      <g>
       <use style="stroke:#000000;stroke-width:0.8;" x="239.217391" xlink:href="#m042dc40e2e" y="256.32"/>
      </g>
     </g>
     <g id="text_3">
      <!-- 40 -->
      <defs>
       <path d="M 37.796875 64.3125 
L 12.890625 25.390625 
L 37.796875 25.390625 
z
M 35.203125 72.90625 
L 47.609375 72.90625 
L 47.609375 25.390625 
L 58.015625 25.390625 
L 58.015625 17.1875 
L 47.609375 17.1875 
L 47.609375 0 
L 37.796875 0 
L 37.796875 17.1875 
L 4.890625 17.1875 
L 4.890625 26.703125 
z
" id="DejaVuSans-34"/>
      </defs>
      <g transform="translate(232.854891 270.918437)scale(0.1 -0.1)">
       <use xlink:href="#DejaVuSans-34"/>
       <use x="63.623047" xlink:href="#DejaVuSans-30"/>
      </g>
     </g>
    </g>
    <g id="xtick_4">
     <g id="line2d_4">
      <g>
       <use style="stroke:#000000;stroke-width:0.8;" x="295.826087" xlink:href="#m042dc40e2e" y="256.32"/>
      </g>
     </g>
     <g id="text_4">
      <!-- 60 -->
      <defs>
       <path d="M 33.015625 40.375 
Q 26.375 40.375 22.484375 35.828125 
Q 18.609375 31.296875 18.609375 23.390625 
Q 18.609375 15.53125 22.484375 10.953125 
Q 26.375 6.390625 33.015625 6.390625 
Q 39.65625 6.390625 43.53125 10.953125 
Q 47.40625 15.53125 47.40625 23.390625 
Q 47.40625 31.296875 43.53125 35.828125 
Q 39.65625 40.375 33.015625 40.375 
z
M 52.59375 71.296875 
L 52.59375 62.3125 
Q 48.875 64.0625 45.09375 64.984375 
Q 41.3125 65.921875 37.59375 65.921875 
Q 27.828125 65.921875 22.671875 59.328125 
Q 17.53125 52.734375 16.796875 39.40625 
Q 19.671875 43.65625 24.015625 45.921875 
Q 28.375 48.1875 33.59375 48.1875 
Q 44.578125 48.1875 50.953125 41.515625 
Q 57.328125 34.859375 57.328125 23.390625 
Q 57.328125 12.15625 50.6875 5.359375 
Q 44.046875 -1.421875 33.015625 -1.421875 
Q 20.359375 -1.421875 13.671875 8.265625 
Q 6.984375 17.96875 6.984375 36.375 
Q 6.984375 53.65625 15.1875 63.9375 
Q 23.390625 74.21875 37.203125 74.21875 
Q 40.921875 74.21875 44.703125 73.484375 
Q 48.484375 72.75 52.59375 71.296875 
z
" id="DejaVuSans-36"/>
      </defs>
      <g transform="translate(289.463587 270.918437)scale(0.1 -0.1)">
       <use xlink:href="#DejaVuSans-36"/>
       <use x="63.623047" xlink:href="#DejaVuSans-30"/>
      </g>
     </g>
    </g>
    <g id="text_5">
     <!-- speed (mm/s) -->
     <defs>
      <path d="M 44.28125 53.078125 
L 44.28125 44.578125 
Q 40.484375 46.53125 36.375 47.5 
Q 32.28125 48.484375 27.875 48.484375 
Q 21.1875 48.484375 17.84375 46.4375 
Q 14.5 44.390625 14.5 40.28125 
Q 14.5 37.15625 16.890625 35.375 
Q 19.28125 33.59375 26.515625 31.984375 
L 29.59375 31.296875 
Q 39.15625 29.25 43.1875 25.515625 
Q 47.21875 21.78125 47.21875 15.09375 
Q 47.21875 7.46875 41.1875 3.015625 
Q 35.15625 -1.421875 24.609375 -1.421875 
Q 20.21875 -1.421875 15.453125 -0.5625 
Q 10.6875 0.296875 5.421875 2 
L 5.421875 11.28125 
Q 10.40625 8.6875 15.234375 7.390625 
Q 20.0625 6.109375 24.8125 6.109375 
Q 31.15625 6.109375 34.5625 8.28125 
Q 37.984375 10.453125 37.984375 14.40625 
Q 37.984375 18.0625 35.515625 20.015625 
Q 33.0625 21.96875 24.703125 23.78125 
L 21.578125 24.515625 
Q 13.234375 26.265625 9.515625 29.90625 
Q 5.8125 33.546875 5.8125 39.890625 
Q 5.8125 47.609375 11.28125 51.796875 
Q 16.75 56 26.8125 56 
Q 31.78125 56 36.171875 55.265625 
Q 40.578125 54.546875 44.28125 53.078125 
z
" id="DejaVuSans-73"/>
      <path d="M 18.109375 8.203125 
L 18.109375 -20.796875 
L 9.078125 -20.796875 
L 9.078125 54.6875 
L 18.109375 54.6875 
L 18.109375 46.390625 
Q 20.953125 51.265625 25.265625 53.625 
Q 29.59375 56 35.59375 56 
Q 45.5625 56 51.78125 48.09375 
Q 58.015625 40.1875 58.015625 27.296875 
Q 58.015625 14.40625 51.78125 6.484375 
Q 45.5625 -1.421875 35.59375 -1.421875 
Q 29.59375 -1.421875 25.265625 0.953125 
Q 20.953125 3.328125 18.109375 8.203125 
z
M 48.6875 27.296875 
Q 48.6875 37.203125 44.609375 42.84375 
Q 40.53125 48.484375 33.40625 48.484375 
Q 26.265625 48.484375 22.1875 42.84375 
Q 18.109375 37.203125 18.109375 27.296875 
Q 18.109375 17.390625 22.1875 11.75 
Q 26.265625 6.109375 33.40625 6.109375 
Q 40.53125 6.109375 44.609375 11.75 
Q 48.6875 17.390625 48.6875 27.296875 
z
" id="DejaVuSans-70"/>
      <path d="M 56.203125 29.59375 
L 56.203125 25.203125 
L 14.890625 25.203125 
Q 15.484375 15.921875 20.484375 11.0625 
Q 25.484375 6.203125 34.421875 6.203125 
Q 39.59375 6.203125 44.453125 7.46875 
Q 49.3125 8.734375 54.109375 11.28125 
L 54.109375 2.78125 
Q 49.265625 0.734375 44.1875 -0.34375 
Q 39.109375 -1.421875 33.890625 -1.421875 
Q 20.796875 -1.421875 13.15625 6.1875 
Q 5.515625 13.8125 5.515625 26.8125 
Q 5.515625 40.234375 12.765625 48.109375 
Q 20.015625 56 32.328125 56 
Q 43.359375 56 49.78125 48.890625 
Q 56.203125 41.796875 56.203125 29.59375 
z
M 47.21875 32.234375 
Q 47.125 39.59375 43.09375 43.984375 
Q 39.0625 48.390625 32.421875 48.390625 
Q 24.90625 48.390625 20.390625 44.140625 
Q 15.875 39.890625 15.1875 32.171875 
z
" id="DejaVuSans-65"/>
      <path d="M 45.40625 46.390625 
L 45.40625 75.984375 
L 54.390625 75.984375 
L 54.390625 0 
L 45.40625 0 
L 45.40625 8.203125 
Q 42.578125 3.328125 38.25 0.953125 
Q 33.9375 -1.421875 27.875 -1.421875 
Q 17.96875 -1.421875 11.734375 6.484375 
Q 5.515625 14.40625 5.515625 27.296875 
Q 5.515625 40.1875 11.734375 48.09375 
Q 17.96875 56 27.875 56 
Q 33.9375 56 38.25 53.625 
Q 42.578125 51.265625 45.40625 46.390625 
z
M 14.796875 27.296875 
Q 14.796875 17.390625 18.875 11.75 
Q 22.953125 6.109375 30.078125 6.109375 
Q 37.203125 6.109375 41.296875 11.75 
Q 45.40625 17.390625 45.40625 27.296875 
Q 45.40625 37.203125 41.296875 42.84375 
Q 37.203125 48.484375 30.078125 48.484375 
Q 22.953125 48.484375 18.875 42.84375 
Q 14.796875 37.203125 14.796875 27.296875 
z
" id="DejaVuSans-64"/>
      <path id="DejaVuSans-20"/>
      <path d="M 31 75.875 
Q 24.46875 64.65625 21.28125 53.65625 
Q 18.109375 42.671875 18.109375 31.390625 
Q 18.109375 20.125 21.3125 9.0625 
Q 24.515625 -2 31 -13.1875 
L 23.1875 -13.1875 
Q 15.875 -1.703125 12.234375 9.375 
Q 8.59375 20.453125 8.59375 31.390625 
Q 8.59375 42.28125 12.203125 53.3125 
Q 15.828125 64.359375 23.1875 75.875 
z
" id="DejaVuSans-28"/>
      <path d="M 52 44.1875 
Q 55.375 50.25 60.0625 53.125 
Q 64.75 56 71.09375 56 
Q 79.640625 56 84.28125 50.015625 
Q 88.921875 44.046875 88.921875 33.015625 
L 88.921875 0 
L 79.890625 0 
L 79.890625 32.71875 
Q 79.890625 40.578125 77.09375 44.375 
Q 74.3125 48.1875 68.609375 48.1875 
Q 61.625 48.1875 57.5625 43.546875 
Q 53.515625 38.921875 53.515625 30.90625 
L 53.515625 0 
L 44.484375 0 
L 44.484375 32.71875 
Q 44.484375 40.625 41.703125 44.40625 
Q 38.921875 48.1875 33.109375 48.1875 
Q 26.21875 48.1875 22.15625 43.53125 
Q 18.109375 38.875 18.109375 30.90625 
L 18.109375 0 
L 9.078125 0 
L 9.078125 54.6875 
L 18.109375 54.6875 
L 18.109375 46.1875 
Q 21.1875 51.21875 25.484375 53.609375 
Q 29.78125 56 35.6875 56 
Q 41.65625 56 45.828125 52.96875 
Q 50 49.953125 52 44.1875 
z
" id="DejaVuSans-6d"/>
      <path d="M 25.390625 72.90625 
L 33.6875 72.90625 
L 8.296875 -9.28125 
L 0 -9.28125 
z
" id="DejaVuSans-2f"/>
      <path d="M 8.015625 75.875 
L 15.828125 75.875 
Q 23.140625 64.359375 26.78125 53.3125 
Q 30.421875 42.28125 30.421875 31.390625 
Q 30.421875 20.453125 26.78125 9.375 
Q 23.140625 -1.703125 15.828125 -13.1875 
L 8.015625 -13.1875 
Q 14.5 -2 17.703125 9.0625 
Q 20.90625 20.125 20.90625 31.390625 
Q 20.90625 42.671875 17.703125 53.65625 
Q 14.5 64.65625 8.015625 75.875 
z
" id="DejaVuSans-29"/>
     </defs>
     <g transform="translate(176.286481 284.596563)scale(0.1 -0.1)">
      <use xlink:href="#DejaVuSans-73"/>
      <use x="52.099609" xlink:href="#DejaVuSans-70"/>
      <use x="115.576172" xlink:href="#DejaVuSans-65"/>
      <use x="177.099609" xlink:href="#DejaVuSans-65"/>
      <use x="238.623047" xlink:href="#DejaVuSans-64"/>
      <use x="302.099609" xlink:href="#DejaVuSans-20"/>
      <use x="333.886719" xlink:href="#DejaVuSans-28"/>
      <use x="372.900391" xlink:href="#DejaVuSans-6d"/>
      <use x="470.3125" xlink:href="#DejaVuSans-6d"/>
      <use x="567.724609" xlink:href="#DejaVuSans-2f"/>
      <use x="601.416016" xlink:href="#DejaVuSans-73"/>
      <use x="653.515625" xlink:href="#DejaVuSans-29"/>
     </g>
    </g>
   </g>
   <g id="matplotlib.axis_2">
    <g id="ytick_1">
     <g id="line2d_5">
      <defs>
       <path d="M 0 0 
L -3.5 0 
" id="me038e27456" style="stroke:#000000;stroke-width:0.8;"/>
      </defs>
      <g>
       <use style="stroke:#000000;stroke-width:0.8;" x="126" xlink:href="#me038e27456" y="256.32"/>
      </g>
     </g>
     <g id="text_6">
      <!-- 0.000 -->
      <defs>
       <path d="M 10.6875 12.40625 
L 21 12.40625 
L 21 0 
L 10.6875 0 
z
" id="DejaVuSans-2e"/>
      </defs>
      <g transform="translate(90.371875 260.119219)scale(0.1 -0.1)">
       <use xlink:href="#DejaVuSans-30"/>
       <use x="63.623047" xlink:href="#DejaVuSans-2e"/>
       <use x="95.410156" xlink:href="#DejaVuSans-30"/>
       <use x="159.033203" xlink:href="#DejaVuSans-30"/>
       <use x="222.65625" xlink:href="#DejaVuSans-30"/>
      </g>
     </g>
    </g>
    <g id="ytick_2">
     <g id="line2d_6">
      <g>
       <use style="stroke:#000000;stroke-width:0.8;" x="126" xlink:href="#me038e27456" y="219.36"/>
      </g>
     </g>
     <g id="text_7">
      <!-- 0.002 -->
      <g transform="translate(90.371875 223.159219)scale(0.1 -0.1)">
       <use xlink:href="#DejaVuSans-30"/>
       <use x="63.623047" xlink:href="#DejaVuSans-2e"/>
       <use x="95.410156" xlink:href="#DejaVuSans-30"/>
       <use x="159.033203" xlink:href="#DejaVuSans-30"/>
       <use x="222.65625" xlink:href="#DejaVuSans-32"/>
      </g>
     </g>
    </g>
    <g id="ytick_3">
     <g id="line2d_7">
      <g>
       <use style="stroke:#000000;stroke-width:0.8;" x="126" xlink:href="#me038e27456" y="182.4"/>
      </g>
     </g>
     <g id="text_8">
      <!-- 0.004 -->
      <g transform="translate(90.371875 186.199219)scale(0.1 -0.1)">
       <use xlink:href="#DejaVuSans-30"/>
       <use x="63.623047" xlink:href="#DejaVuSans-2e"/>
       <use x="95.410156" xlink:href="#DejaVuSans-30"/>
       <use x="159.033203" xlink:href="#DejaVuSans-30"/>
       <use x="222.65625" xlink:href="#DejaVuSans-34"/>
      </g>
     </g>
    </g>
    <g id="ytick_4">
     <g id="line2d_8">
      <g>
       <use style="stroke:#000000;stroke-width:0.8;" x="126" xlink:href="#me038e27456" y="145.44"/>
      </g>
     </g>
     <g id="text_9">
      <!-- 0.006 -->
      <g transform="translate(90.371875 149.239219)scale(0.1 -0.1)">
       <use xlink:href="#DejaVuSans-30"/>
       <use x="63.623047" xlink:href="#DejaVuSans-2e"/>
       <use x="95.410156" xlink:href="#DejaVuSans-30"/>
       <use x="159.033203" xlink:href="#DejaVuSans-30"/>
       <use x="222.65625" xlink:href="#DejaVuSans-36"/>
      </g>
     </g>
    </g>
    <g id="ytick_5">
     <g id="line2d_9">
      <g>
       <use style="stroke:#000000;stroke-width:0.8;" x="126" xlink:href="#me038e27456" y="108.48"/>
      </g>
     </g>
     <g id="text_10">
      <!-- 0.008 -->
      <defs>
       <path d="M 31.78125 34.625 
Q 24.75 34.625 20.71875 30.859375 
Q 16.703125 27.09375 16.703125 20.515625 
Q 16.703125 13.921875 20.71875 10.15625 
Q 24.75 6.390625 31.78125 6.390625 
Q 38.8125 6.390625 42.859375 10.171875 
Q 46.921875 13.96875 46.921875 20.515625 
Q 46.921875 27.09375 42.890625 30.859375 
Q 38.875 34.625 31.78125 34.625 
z
M 21.921875 38.8125 
Q 15.578125 40.375 12.03125 44.71875 
Q 8.5 49.078125 8.5 55.328125 
Q 8.5 64.0625 14.71875 69.140625 
Q 20.953125 74.21875 31.78125 74.21875 
Q 42.671875 74.21875 48.875 69.140625 
Q 55.078125 64.0625 55.078125 55.328125 
Q 55.078125 49.078125 51.53125 44.71875 
Q 48 40.375 41.703125 38.8125 
Q 48.828125 37.15625 52.796875 32.3125 
Q 56.78125 27.484375 56.78125 20.515625 
Q 56.78125 9.90625 50.3125 4.234375 
Q 43.84375 -1.421875 31.78125 -1.421875 
Q 19.734375 -1.421875 13.25 4.234375 
Q 6.78125 9.90625 6.78125 20.515625 
Q 6.78125 27.484375 10.78125 32.3125 
Q 14.796875 37.15625 21.921875 38.8125 
z
M 18.3125 54.390625 
Q 18.3125 48.734375 21.84375 45.5625 
Q 25.390625 42.390625 31.78125 42.390625 
Q 38.140625 42.390625 41.71875 45.5625 
Q 45.3125 48.734375 45.3125 54.390625 
Q 45.3125 60.0625 41.71875 63.234375 
Q 38.140625 66.40625 31.78125 66.40625 
Q 25.390625 66.40625 21.84375 63.234375 
Q 18.3125 60.0625 18.3125 54.390625 
z
" id="DejaVuSans-38"/>
      </defs>
      <g transform="translate(90.371875 112.279219)scale(0.1 -0.1)">
       <use xlink:href="#DejaVuSans-30"/>
       <use x="63.623047" xlink:href="#DejaVuSans-2e"/>
       <use x="95.410156" xlink:href="#DejaVuSans-30"/>
       <use x="159.033203" xlink:href="#DejaVuSans-30"/>
       <use x="222.65625" xlink:href="#DejaVuSans-38"/>
      </g>
     </g>
    </g>
    <g id="ytick_6">
     <g id="line2d_10">
      <g>
       <use style="stroke:#000000;stroke-width:0.8;" x="126" xlink:href="#me038e27456" y="71.52"/>
      </g>
     </g>
     <g id="text_11">
      <!-- 0.010 -->
      <defs>
       <path d="M 12.40625 8.296875 
L 28.515625 8.296875 
L 28.515625 63.921875 
L 10.984375 60.40625 
L 10.984375 69.390625 
L 28.421875 72.90625 
L 38.28125 72.90625 
L 38.28125 8.296875 
L 54.390625 8.296875 
L 54.390625 0 
L 12.40625 0 
z
" id="DejaVuSans-31"/>
      </defs>
      <g transform="translate(90.371875 75.319219)scale(0.1 -0.1)">
       <use xlink:href="#DejaVuSans-30"/>
       <use x="63.623047" xlink:href="#DejaVuSans-2e"/>
       <use x="95.410156" xlink:href="#DejaVuSans-30"/>
       <use x="159.033203" xlink:href="#DejaVuSans-31"/>
       <use x="222.65625" xlink:href="#DejaVuSans-30"/>
      </g>
     </g>
    </g>
    <g id="ytick_7">
     <g id="line2d_11">
      <g>
       <use style="stroke:#000000;stroke-width:0.8;" x="126" xlink:href="#me038e27456" y="34.56"/>
      </g>
     </g>
     <g id="text_12">
      <!-- 0.012 -->
      <g transform="translate(90.371875 38.359219)scale(0.1 -0.1)">
       <use xlink:href="#DejaVuSans-30"/>
       <use x="63.623047" xlink:href="#DejaVuSans-2e"/>
       <use x="95.410156" xlink:href="#DejaVuSans-30"/>
       <use x="159.033203" xlink:href="#DejaVuSans-31"/>
       <use x="222.65625" xlink:href="#DejaVuSans-32"/>
      </g>
     </g>
    </g>
    <g id="text_13">
     <!-- fraction of dist traveled -->
     <defs>
      <path d="M 37.109375 75.984375 
L 37.109375 68.5 
L 28.515625 68.5 
Q 23.6875 68.5 21.796875 66.546875 
Q 19.921875 64.59375 19.921875 59.515625 
L 19.921875 54.6875 
L 34.71875 54.6875 
L 34.71875 47.703125 
L 19.921875 47.703125 
L 19.921875 0 
L 10.890625 0 
L 10.890625 47.703125 
L 2.296875 47.703125 
L 2.296875 54.6875 
L 10.890625 54.6875 
L 10.890625 58.5 
Q 10.890625 67.625 15.140625 71.796875 
Q 19.390625 75.984375 28.609375 75.984375 
z
" id="DejaVuSans-66"/>
      <path d="M 41.109375 46.296875 
Q 39.59375 47.171875 37.8125 47.578125 
Q 36.03125 48 33.890625 48 
Q 26.265625 48 22.1875 43.046875 
Q 18.109375 38.09375 18.109375 28.8125 
L 18.109375 0 
L 9.078125 0 
L 9.078125 54.6875 
L 18.109375 54.6875 
L 18.109375 46.1875 
Q 20.953125 51.171875 25.484375 53.578125 
Q 30.03125 56 36.53125 56 
Q 37.453125 56 38.578125 55.875 
Q 39.703125 55.765625 41.0625 55.515625 
z
" id="DejaVuSans-72"/>
      <path d="M 34.28125 27.484375 
Q 23.390625 27.484375 19.1875 25 
Q 14.984375 22.515625 14.984375 16.5 
Q 14.984375 11.71875 18.140625 8.90625 
Q 21.296875 6.109375 26.703125 6.109375 
Q 34.1875 6.109375 38.703125 11.40625 
Q 43.21875 16.703125 43.21875 25.484375 
L 43.21875 27.484375 
z
M 52.203125 31.203125 
L 52.203125 0 
L 43.21875 0 
L 43.21875 8.296875 
Q 40.140625 3.328125 35.546875 0.953125 
Q 30.953125 -1.421875 24.3125 -1.421875 
Q 15.921875 -1.421875 10.953125 3.296875 
Q 6 8.015625 6 15.921875 
Q 6 25.140625 12.171875 29.828125 
Q 18.359375 34.515625 30.609375 34.515625 
L 43.21875 34.515625 
L 43.21875 35.40625 
Q 43.21875 41.609375 39.140625 45 
Q 35.0625 48.390625 27.6875 48.390625 
Q 23 48.390625 18.546875 47.265625 
Q 14.109375 46.140625 10.015625 43.890625 
L 10.015625 52.203125 
Q 14.9375 54.109375 19.578125 55.046875 
Q 24.21875 56 28.609375 56 
Q 40.484375 56 46.34375 49.84375 
Q 52.203125 43.703125 52.203125 31.203125 
z
" id="DejaVuSans-61"/>
      <path d="M 48.78125 52.59375 
L 48.78125 44.1875 
Q 44.96875 46.296875 41.140625 47.34375 
Q 37.3125 48.390625 33.40625 48.390625 
Q 24.65625 48.390625 19.8125 42.84375 
Q 14.984375 37.3125 14.984375 27.296875 
Q 14.984375 17.28125 19.8125 11.734375 
Q 24.65625 6.203125 33.40625 6.203125 
Q 37.3125 6.203125 41.140625 7.25 
Q 44.96875 8.296875 48.78125 10.40625 
L 48.78125 2.09375 
Q 45.015625 0.34375 40.984375 -0.53125 
Q 36.96875 -1.421875 32.421875 -1.421875 
Q 20.0625 -1.421875 12.78125 6.34375 
Q 5.515625 14.109375 5.515625 27.296875 
Q 5.515625 40.671875 12.859375 48.328125 
Q 20.21875 56 33.015625 56 
Q 37.15625 56 41.109375 55.140625 
Q 45.0625 54.296875 48.78125 52.59375 
z
" id="DejaVuSans-63"/>
      <path d="M 18.3125 70.21875 
L 18.3125 54.6875 
L 36.8125 54.6875 
L 36.8125 47.703125 
L 18.3125 47.703125 
L 18.3125 18.015625 
Q 18.3125 11.328125 20.140625 9.421875 
Q 21.96875 7.515625 27.59375 7.515625 
L 36.8125 7.515625 
L 36.8125 0 
L 27.59375 0 
Q 17.1875 0 13.234375 3.875 
Q 9.28125 7.765625 9.28125 18.015625 
L 9.28125 47.703125 
L 2.6875 47.703125 
L 2.6875 54.6875 
L 9.28125 54.6875 
L 9.28125 70.21875 
z
" id="DejaVuSans-74"/>
      <path d="M 9.421875 54.6875 
L 18.40625 54.6875 
L 18.40625 0 
L 9.421875 0 
z
M 9.421875 75.984375 
L 18.40625 75.984375 
L 18.40625 64.59375 
L 9.421875 64.59375 
z
" id="DejaVuSans-69"/>
      <path d="M 30.609375 48.390625 
Q 23.390625 48.390625 19.1875 42.75 
Q 14.984375 37.109375 14.984375 27.296875 
Q 14.984375 17.484375 19.15625 11.84375 
Q 23.34375 6.203125 30.609375 6.203125 
Q 37.796875 6.203125 41.984375 11.859375 
Q 46.1875 17.53125 46.1875 27.296875 
Q 46.1875 37.015625 41.984375 42.703125 
Q 37.796875 48.390625 30.609375 48.390625 
z
M 30.609375 56 
Q 42.328125 56 49.015625 48.375 
Q 55.71875 40.765625 55.71875 27.296875 
Q 55.71875 13.875 49.015625 6.21875 
Q 42.328125 -1.421875 30.609375 -1.421875 
Q 18.84375 -1.421875 12.171875 6.21875 
Q 5.515625 13.875 5.515625 27.296875 
Q 5.515625 40.765625 12.171875 48.375 
Q 18.84375 56 30.609375 56 
z
" id="DejaVuSans-6f"/>
      <path d="M 54.890625 33.015625 
L 54.890625 0 
L 45.90625 0 
L 45.90625 32.71875 
Q 45.90625 40.484375 42.875 44.328125 
Q 39.84375 48.1875 33.796875 48.1875 
Q 26.515625 48.1875 22.3125 43.546875 
Q 18.109375 38.921875 18.109375 30.90625 
L 18.109375 0 
L 9.078125 0 
L 9.078125 54.6875 
L 18.109375 54.6875 
L 18.109375 46.1875 
Q 21.34375 51.125 25.703125 53.5625 
Q 30.078125 56 35.796875 56 
Q 45.21875 56 50.046875 50.171875 
Q 54.890625 44.34375 54.890625 33.015625 
z
" id="DejaVuSans-6e"/>
      <path d="M 2.984375 54.6875 
L 12.5 54.6875 
L 29.59375 8.796875 
L 46.6875 54.6875 
L 56.203125 54.6875 
L 35.6875 0 
L 23.484375 0 
z
" id="DejaVuSans-76"/>
      <path d="M 9.421875 75.984375 
L 18.40625 75.984375 
L 18.40625 0 
L 9.421875 0 
z
" id="DejaVuSans-6c"/>
     </defs>
     <g transform="translate(84.292187 204.116562)rotate(-90)scale(0.1 -0.1)">
      <use xlink:href="#DejaVuSans-66"/>
      <use x="35.205078" xlink:href="#DejaVuSans-72"/>
      <use x="76.318359" xlink:href="#DejaVuSans-61"/>
      <use x="137.597656" xlink:href="#DejaVuSans-63"/>
      <use x="192.578125" xlink:href="#DejaVuSans-74"/>
      <use x="231.787109" xlink:href="#DejaVuSans-69"/>
      <use x="259.570312" xlink:href="#DejaVuSans-6f"/>
      <use x="320.751953" xlink:href="#DejaVuSans-6e"/>
      <use x="384.130859" xlink:href="#DejaVuSans-20"/>
      <use x="415.917969" xlink:href="#DejaVuSans-6f"/>
      <use x="477.099609" xlink:href="#DejaVuSans-66"/>
      <use x="512.304688" xlink:href="#DejaVuSans-20"/>
      <use x="544.091797" xlink:href="#DejaVuSans-64"/>
      <use x="607.568359" xlink:href="#DejaVuSans-69"/>
      <use x="635.351562" xlink:href="#DejaVuSans-73"/>
      <use x="687.451172" xlink:href="#DejaVuSans-74"/>
      <use x="726.660156" xlink:href="#DejaVuSans-20"/>
      <use x="758.447266" xlink:href="#DejaVuSans-74"/>
      <use x="797.65625" xlink:href="#DejaVuSans-72"/>
      <use x="838.769531" xlink:href="#DejaVuSans-61"/>
      <use x="900.048828" xlink:href="#DejaVuSans-76"/>
      <use x="959.228516" xlink:href="#DejaVuSans-65"/>
      <use x="1020.751953" xlink:href="#DejaVuSans-6c"/>
      <use x="1048.535156" xlink:href="#DejaVuSans-65"/>
      <use x="1110.058594" xlink:href="#DejaVuSans-64"/>
     </g>
    </g>
   </g>
   <g id="line2d_12">
    <path clip-path="url(#p947ddaabac)" d="M 201.997174 256.32 
L 201.997174 34.56 
" style="fill:none;opacity:0.4;stroke:#000000;stroke-dasharray:1.5,2.475;stroke-dashoffset:0;stroke-width:1.5;"/>
   </g>
   <g id="line2d_13">
    <path clip-path="url(#p947ddaabac)" d="M 225.348261 256.32 
L 225.348261 123.264 
" style="fill:none;opacity:0.4;stroke:#000000;stroke-linecap:square;stroke-width:1.5;"/>
   </g>
   <g id="line2d_14">
    <path clip-path="url(#p947ddaabac)" d="M 128.688913 254.853946 
L 130.387174 254.015974 
L 131.236304 253.813971 
L 132.085435 253.817231 
L 133.217609 254.097857 
L 137.180217 255.441216 
L 138.595435 255.551672 
L 140.859783 255.451059 
L 143.12413 255.126772 
L 145.105435 254.575652 
L 147.086739 253.794595 
L 151.049348 252.107859 
L 152.464565 251.778985 
L 155.861087 251.28857 
L 156.710217 250.809163 
L 157.559348 250.034226 
L 158.408478 248.941469 
L 159.540652 247.021221 
L 160.95587 244.080744 
L 163.220217 239.285158 
L 164.352391 237.375686 
L 165.484565 235.927379 
L 166.616739 234.883319 
L 167.748913 234.170641 
L 168.881087 233.769755 
L 170.013261 233.647668 
L 171.994565 233.558332 
L 172.843696 233.29688 
L 173.692826 232.813097 
L 174.541957 232.090768 
L 175.391087 231.097256 
L 176.240217 229.755579 
L 177.089348 227.966013 
L 177.938478 225.66298 
L 179.070652 221.827626 
L 180.48587 216.150643 
L 183.316304 204.534206 
L 184.448478 200.958479 
L 185.580652 198.199335 
L 186.712826 195.503792 
L 187.278913 193.755854 
L 187.845 191.482669 
L 188.411087 188.51616 
L 189.260217 182.537801 
L 190.109348 174.717038 
L 191.524565 158.879565 
L 193.222826 139.854152 
L 194.638043 126.447816 
L 196.619348 107.899761 
L 199.166739 82.629261 
L 200.01587 76.543006 
L 200.581957 73.634921 
L 201.148043 71.720851 
L 201.431087 71.146648 
L 201.71413 70.830998 
L 201.997174 70.775408 
L 202.280217 70.980361 
L 202.563261 71.444863 
L 203.129348 73.13757 
L 203.695435 75.793457 
L 204.544565 81.311722 
L 205.676739 90.522154 
L 208.22413 111.785482 
L 210.771522 132.250143 
L 212.186739 145.779879 
L 215.866304 182.430332 
L 217.281522 193.813234 
L 218.696739 203.284439 
L 220.678043 214.757527 
L 222.376304 223.663704 
L 223.508478 228.672749 
L 224.640652 232.704236 
L 225.772826 235.954238 
L 227.471087 240.049751 
L 229.169348 243.532153 
L 233.415 251.209686 
L 233.415 251.209686 
" style="fill:none;opacity:0.4;stroke:#000000;stroke-linecap:square;stroke-width:1.5;"/>
   </g>
   <g id="line2d_15">
    <path clip-path="url(#p947ddaabac)" d="M 128.688913 255.616343 
L 133.500652 254.381738 
L 134.91587 254.366417 
L 136.897174 254.625807 
L 138.595435 254.802991 
L 140.010652 254.70196 
L 141.42587 254.321009 
L 143.407174 253.482653 
L 145.671522 252.561486 
L 149.351087 251.222445 
L 150.483261 250.430827 
L 151.615435 249.278022 
L 152.747609 247.727686 
L 154.162826 245.305059 
L 158.974565 236.517281 
L 161.805 232.117077 
L 164.069348 228.639145 
L 165.201522 226.490404 
L 166.333696 223.760728 
L 167.46587 220.32508 
L 168.598043 216.199291 
L 170.296304 209.06536 
L 173.692826 194.511941 
L 176.523261 183.688622 
L 177.938478 178.963032 
L 179.070652 175.904633 
L 180.202826 173.473482 
L 182.18413 169.46948 
L 183.316304 166.583533 
L 184.731522 162.249144 
L 186.429783 156.356331 
L 187.845 150.680909 
L 189.260217 143.985679 
L 191.241522 134.504334 
L 192.090652 131.669743 
L 192.656739 130.590433 
L 192.939783 130.344153 
L 193.222826 130.310096 
L 193.50587 130.496805 
L 193.788913 130.909245 
L 194.355 132.411703 
L 194.921087 134.777392 
L 195.770217 139.698472 
L 197.185435 149.975338 
L 198.600652 159.718168 
L 199.449783 164.006342 
L 200.01587 165.972394 
L 200.581957 167.183494 
L 200.865 167.510498 
L 201.148043 167.659334 
L 201.431087 167.63819 
L 201.71413 167.456853 
L 202.280217 166.658687 
L 202.846304 165.363062 
L 203.695435 162.721676 
L 206.808913 151.833112 
L 207.375 150.681145 
L 207.941087 150.044344 
L 208.22413 149.939911 
L 208.507174 149.985539 
L 208.790217 150.184359 
L 209.356304 151.044502 
L 209.922391 152.508449 
L 210.488478 154.539931 
L 211.337609 158.531341 
L 212.469783 165.275289 
L 213.885 175.255616 
L 218.413696 208.600429 
L 219.828913 217.073117 
L 221.24413 224.219182 
L 222.659348 230.270686 
L 224.357609 236.587834 
L 225.772826 241.198809 
L 226.905 244.294511 
L 228.037174 246.705635 
L 228.886304 248.045367 
L 229.735435 249.021968 
L 230.584565 249.690982 
L 231.433696 250.104932 
L 231.999783 250.261464 
L 233.415 250.34324 
L 235.679348 250.296523 
L 236.811522 250.568606 
L 237.943696 251.061688 
L 239.641957 251.866747 
L 241.623261 252.474047 
L 243.604565 253.016448 
L 244.453696 253.359839 
L 246.151957 254.246146 
L 246.151957 254.246146 
" style="fill:none;opacity:0.5;stroke:#b1740f;stroke-dasharray:5.55,2.4;stroke-dashoffset:0;stroke-width:1.5;"/>
   </g>
   <g id="line2d_16">
    <path clip-path="url(#p947ddaabac)" d="M 225.631304 256.32 
L 225.631304 123.264 
" style="fill:none;opacity:0.5;stroke:#b1740f;stroke-dasharray:5.55,2.4;stroke-dashoffset:0;stroke-width:1.5;"/>
   </g>
   <g id="line2d_17">
    <path clip-path="url(#p947ddaabac)" d="M 129.821087 255.929073 
L 132.368478 255.35855 
L 144.539348 252.054231 
L 147.369783 251.055929 
L 149.068043 250.195117 
L 150.766304 249.073666 
L 153.879783 246.675181 
L 156.14413 244.724843 
L 157.842391 242.969603 
L 159.823696 240.558362 
L 162.088043 237.435225 
L 165.201522 232.679992 
L 167.46587 229.374755 
L 171.145435 224.310416 
L 172.560652 221.794167 
L 174.541957 217.683176 
L 176.523261 213.7225 
L 178.221522 210.871239 
L 180.202826 207.527022 
L 181.335 205.085439 
L 182.467174 202.022958 
L 183.882391 197.344129 
L 186.146739 188.758959 
L 190.109348 173.02895 
L 191.524565 166.176174 
L 192.939783 158.07531 
L 196.336304 137.786167 
L 197.185435 134.032529 
L 198.034565 131.231017 
L 198.600652 129.928241 
L 199.166739 129.079648 
L 199.732826 128.673824 
L 200.298913 128.690871 
L 200.865 129.104641 
L 201.431087 129.884062 
L 202.280217 131.660378 
L 203.129348 134.04375 
L 204.261522 137.90557 
L 209.073261 155.357903 
L 210.205435 158.381883 
L 211.903696 162.15548 
L 213.601957 165.992833 
L 214.73413 169.160022 
L 215.866304 173.031167 
L 217.281522 178.841669 
L 218.979783 186.927199 
L 221.527174 200.359998 
L 224.357609 215.142136 
L 226.05587 222.759904 
L 227.471087 227.986566 
L 228.603261 231.330508 
L 229.735435 233.886891 
L 230.584565 235.300365 
L 231.433696 236.336561 
L 232.56587 237.294254 
L 235.396304 239.353781 
L 236.528478 240.59918 
L 237.943696 242.548561 
L 240.77413 246.593402 
L 241.906304 247.810604 
L 243.038478 248.683718 
L 244.170652 249.253494 
L 245.58587 249.695336 
L 249.265435 250.729381 
L 256.907609 253.344232 
L 258.60587 253.683322 
L 259.738043 253.744157 
L 260.870217 253.642899 
L 263.134565 253.085351 
L 264.832826 252.704929 
L 265.965 252.656415 
L 267.097174 252.834528 
L 268.229348 253.227044 
L 269.927609 254.069039 
L 271.62587 254.941991 
L 271.62587 254.941991 
" style="fill:none;stroke:#b1740f;stroke-linecap:square;stroke-width:1.5;"/>
   </g>
   <g id="line2d_18">
    <path clip-path="url(#p947ddaabac)" d="M 244.878261 256.32 
L 244.878261 123.264 
" style="fill:none;stroke:#b1740f;stroke-linecap:square;stroke-width:1.5;"/>
   </g>
   <g id="patch_3">
    <path d="M 126 256.32 
L 126 34.56 
" style="fill:none;stroke:#000000;stroke-linecap:square;stroke-linejoin:miter;stroke-width:0.8;"/>
   </g>
   <g id="patch_4">
    <path d="M 295.826087 256.32 
L 295.826087 34.56 
" style="fill:none;stroke:#000000;stroke-linecap:square;stroke-linejoin:miter;stroke-width:0.8;"/>
   </g>
   <g id="patch_5">
    <path d="M 126 256.32 
L 295.826087 256.32 
" style="fill:none;stroke:#000000;stroke-linecap:square;stroke-linejoin:miter;stroke-width:0.8;"/>
   </g>
   <g id="patch_6">
    <path d="M 126 34.56 
L 295.826087 34.56 
" style="fill:none;stroke:#000000;stroke-linecap:square;stroke-linejoin:miter;stroke-width:0.8;"/>
   </g>
   <g id="text_14">
    <!-- 50 -->
    <defs>
     <path d="M 10.796875 72.90625 
L 49.515625 72.90625 
L 49.515625 64.59375 
L 19.828125 64.59375 
L 19.828125 46.734375 
Q 21.96875 47.46875 24.109375 47.828125 
Q 26.265625 48.1875 28.421875 48.1875 
Q 40.625 48.1875 47.75 41.5 
Q 54.890625 34.8125 54.890625 23.390625 
Q 54.890625 11.625 47.5625 5.09375 
Q 40.234375 -1.421875 26.90625 -1.421875 
Q 22.3125 -1.421875 17.546875 -0.640625 
Q 12.796875 0.140625 7.71875 1.703125 
L 7.71875 11.625 
Q 12.109375 9.234375 16.796875 8.0625 
Q 21.484375 6.890625 26.703125 6.890625 
Q 35.15625 6.890625 40.078125 11.328125 
Q 45.015625 15.765625 45.015625 23.390625 
Q 45.015625 31 40.078125 35.4375 
Q 35.15625 39.890625 26.703125 39.890625 
Q 22.75 39.890625 18.8125 39.015625 
Q 14.890625 38.140625 10.796875 36.28125 
z
" id="DejaVuSans-35"/>
    </defs>
    <g style="opacity:0.4;" transform="translate(210.913043 53.04)scale(0.1 -0.1)">
     <use xlink:href="#DejaVuSans-35"/>
     <use x="63.623047" xlink:href="#DejaVuSans-30"/>
    </g>
   </g>
   <g id="text_15">
    <!-- 72.88 cm -->
    <defs>
     <path d="M 8.203125 72.90625 
L 55.078125 72.90625 
L 55.078125 68.703125 
L 28.609375 0 
L 18.3125 0 
L 43.21875 64.59375 
L 8.203125 64.59375 
z
" id="DejaVuSans-37"/>
    </defs>
    <g style="opacity:0.4;" transform="translate(239.217391 53.04)scale(0.1 -0.1)">
     <use xlink:href="#DejaVuSans-37"/>
     <use x="63.623047" xlink:href="#DejaVuSans-32"/>
     <use x="127.246094" xlink:href="#DejaVuSans-2e"/>
     <use x="159.033203" xlink:href="#DejaVuSans-38"/>
     <use x="222.65625" xlink:href="#DejaVuSans-38"/>
     <use x="286.279297" xlink:href="#DejaVuSans-20"/>
     <use x="318.066406" xlink:href="#DejaVuSans-63"/>
     <use x="373.046875" xlink:href="#DejaVuSans-6d"/>
    </g>
   </g>
   <g id="text_16">
    <!-- 52 -->
    <g style="fill:#b1740f;opacity:0.5;" transform="translate(210.913043 71.52)scale(0.1 -0.1)">
     <use xlink:href="#DejaVuSans-35"/>
     <use x="63.623047" xlink:href="#DejaVuSans-32"/>
    </g>
   </g>
   <g id="text_17">
    <!-- 85.96 -->
    <defs>
     <path d="M 10.984375 1.515625 
L 10.984375 10.5 
Q 14.703125 8.734375 18.5 7.8125 
Q 22.3125 6.890625 25.984375 6.890625 
Q 35.75 6.890625 40.890625 13.453125 
Q 46.046875 20.015625 46.78125 33.40625 
Q 43.953125 29.203125 39.59375 26.953125 
Q 35.25 24.703125 29.984375 24.703125 
Q 19.046875 24.703125 12.671875 31.3125 
Q 6.296875 37.9375 6.296875 49.421875 
Q 6.296875 60.640625 12.9375 67.421875 
Q 19.578125 74.21875 30.609375 74.21875 
Q 43.265625 74.21875 49.921875 64.515625 
Q 56.59375 54.828125 56.59375 36.375 
Q 56.59375 19.140625 48.40625 8.859375 
Q 40.234375 -1.421875 26.421875 -1.421875 
Q 22.703125 -1.421875 18.890625 -0.6875 
Q 15.09375 0.046875 10.984375 1.515625 
z
M 30.609375 32.421875 
Q 37.25 32.421875 41.125 36.953125 
Q 45.015625 41.5 45.015625 49.421875 
Q 45.015625 57.28125 41.125 61.84375 
Q 37.25 66.40625 30.609375 66.40625 
Q 23.96875 66.40625 20.09375 61.84375 
Q 16.21875 57.28125 16.21875 49.421875 
Q 16.21875 41.5 20.09375 36.953125 
Q 23.96875 32.421875 30.609375 32.421875 
z
" id="DejaVuSans-39"/>
    </defs>
    <g style="fill:#b1740f;opacity:0.5;" transform="translate(239.217391 71.52)scale(0.1 -0.1)">
     <use xlink:href="#DejaVuSans-38"/>
     <use x="63.623047" xlink:href="#DejaVuSans-35"/>
     <use x="127.246094" xlink:href="#DejaVuSans-2e"/>
     <use x="159.033203" xlink:href="#DejaVuSans-39"/>
     <use x="222.65625" xlink:href="#DejaVuSans-36"/>
    </g>
   </g>
   <g id="text_18">
    <!-- 83 -->
    <defs>
     <path d="M 40.578125 39.3125 
Q 47.65625 37.796875 51.625 33 
Q 55.609375 28.21875 55.609375 21.1875 
Q 55.609375 10.40625 48.1875 4.484375 
Q 40.765625 -1.421875 27.09375 -1.421875 
Q 22.515625 -1.421875 17.65625 -0.515625 
Q 12.796875 0.390625 7.625 2.203125 
L 7.625 11.71875 
Q 11.71875 9.328125 16.59375 8.109375 
Q 21.484375 6.890625 26.8125 6.890625 
Q 36.078125 6.890625 40.9375 10.546875 
Q 45.796875 14.203125 45.796875 21.1875 
Q 45.796875 27.640625 41.28125 31.265625 
Q 36.765625 34.90625 28.71875 34.90625 
L 20.21875 34.90625 
L 20.21875 43.015625 
L 29.109375 43.015625 
Q 36.375 43.015625 40.234375 45.921875 
Q 44.09375 48.828125 44.09375 54.296875 
Q 44.09375 59.90625 40.109375 62.90625 
Q 36.140625 65.921875 28.71875 65.921875 
Q 24.65625 65.921875 20.015625 65.03125 
Q 15.375 64.15625 9.8125 62.3125 
L 9.8125 71.09375 
Q 15.4375 72.65625 20.34375 73.4375 
Q 25.25 74.21875 29.59375 74.21875 
Q 40.828125 74.21875 47.359375 69.109375 
Q 53.90625 64.015625 53.90625 55.328125 
Q 53.90625 49.265625 50.4375 45.09375 
Q 46.96875 40.921875 40.578125 39.3125 
z
" id="DejaVuSans-33"/>
    </defs>
    <g style="fill:#b1740f;" transform="translate(210.913043 90)scale(0.1 -0.1)">
     <use xlink:href="#DejaVuSans-38"/>
     <use x="63.623047" xlink:href="#DejaVuSans-33"/>
    </g>
   </g>
   <g id="text_19">
    <!-- 131.53 -->
    <g style="fill:#b1740f;" transform="translate(239.217391 90)scale(0.1 -0.1)">
     <use xlink:href="#DejaVuSans-31"/>
     <use x="63.623047" xlink:href="#DejaVuSans-33"/>
     <use x="127.246094" xlink:href="#DejaVuSans-31"/>
     <use x="190.869141" xlink:href="#DejaVuSans-2e"/>
     <use x="222.65625" xlink:href="#DejaVuSans-35"/>
     <use x="286.279297" xlink:href="#DejaVuSans-33"/>
    </g>
   </g>
  </g>
  <g id="axes_2">
   <g id="patch_7">
    <path d="M 329.791304 256.32 
L 499.617391 256.32 
L 499.617391 34.56 
L 329.791304 34.56 
z
" style="fill:#ffffff;"/>
   </g>
   <g id="matplotlib.axis_3">
    <g id="xtick_5">
     <g id="line2d_19">
      <g>
       <use style="stroke:#000000;stroke-width:0.8;" x="329.791304" xlink:href="#m042dc40e2e" y="256.32"/>
      </g>
     </g>
     <g id="text_20">
      <!-- 0 -->
      <g transform="translate(326.610054 270.918437)scale(0.1 -0.1)">
       <use xlink:href="#DejaVuSans-30"/>
      </g>
     </g>
    </g>
    <g id="xtick_6">
     <g id="line2d_20">
      <g>
       <use style="stroke:#000000;stroke-width:0.8;" x="386.4" xlink:href="#m042dc40e2e" y="256.32"/>
      </g>
     </g>
     <g id="text_21">
      <!-- 20 -->
      <g transform="translate(380.0375 270.918437)scale(0.1 -0.1)">
       <use xlink:href="#DejaVuSans-32"/>
       <use x="63.623047" xlink:href="#DejaVuSans-30"/>
      </g>
     </g>
    </g>
    <g id="xtick_7">
     <g id="line2d_21">
      <g>
       <use style="stroke:#000000;stroke-width:0.8;" x="443.008696" xlink:href="#m042dc40e2e" y="256.32"/>
      </g>
     </g>
     <g id="text_22">
      <!-- 40 -->
      <g transform="translate(436.646196 270.918437)scale(0.1 -0.1)">
       <use xlink:href="#DejaVuSans-34"/>
       <use x="63.623047" xlink:href="#DejaVuSans-30"/>
      </g>
     </g>
    </g>
    <g id="xtick_8">
     <g id="line2d_22">
      <g>
       <use style="stroke:#000000;stroke-width:0.8;" x="499.617391" xlink:href="#m042dc40e2e" y="256.32"/>
      </g>
     </g>
     <g id="text_23">
      <!-- 60 -->
      <g transform="translate(493.254891 270.918437)scale(0.1 -0.1)">
       <use xlink:href="#DejaVuSans-36"/>
       <use x="63.623047" xlink:href="#DejaVuSans-30"/>
      </g>
     </g>
    </g>
   </g>
   <g id="line2d_23">
    <path clip-path="url(#p4fb5ab86a3)" d="M 405.788478 256.32 
L 405.788478 34.56 
" style="fill:none;opacity:0.4;stroke:#000000;stroke-dasharray:1.5,2.475;stroke-dashoffset:0;stroke-width:1.5;"/>
   </g>
   <g id="line2d_24">
    <path clip-path="url(#p4fb5ab86a3)" d="M 404.797826 256.32 
L 404.797826 123.264 
" style="fill:none;opacity:0.4;stroke:#000000;stroke-linecap:square;stroke-width:1.5;"/>
   </g>
   <g id="line2d_25">
    <path clip-path="url(#p4fb5ab86a3)" d="M 334.178478 256.213985 
L 336.72587 256.056845 
L 337.858043 255.733189 
L 338.707174 255.272906 
L 339.556304 254.590936 
L 340.688478 253.350915 
L 342.103696 251.398113 
L 344.368043 247.810764 
L 345.783261 245.297686 
L 346.915435 242.829539 
L 347.764565 240.499307 
L 348.613696 237.612048 
L 349.462826 234.067793 
L 350.595 228.288664 
L 352.293261 218.038358 
L 354.557609 203.190616 
L 355.972826 192.280879 
L 361.067609 149.925718 
L 365.879348 115.219811 
L 366.728478 110.967383 
L 367.577609 107.812232 
L 368.426739 105.668727 
L 368.992826 104.706825 
L 369.558913 104.038468 
L 370.408043 103.446692 
L 371.257174 103.20034 
L 372.106304 103.189331 
L 373.238478 103.445243 
L 374.087609 103.885289 
L 374.653696 104.396756 
L 375.219783 105.189799 
L 375.78587 106.35769 
L 376.351957 107.95496 
L 377.201087 111.095614 
L 379.748478 121.541733 
L 382.012826 129.466999 
L 382.861957 133.57014 
L 383.99413 140.519651 
L 385.692391 152.960312 
L 391.070217 193.310337 
L 392.485435 202.257931 
L 393.900652 209.578055 
L 395.31587 215.536439 
L 396.731087 220.464695 
L 398.146304 224.540636 
L 399.561522 227.883646 
L 403.52413 236.542269 
L 406.354565 243.25267 
L 407.486739 245.373962 
L 408.33587 246.577239 
L 409.185 247.420595 
L 410.03413 247.940935 
L 411.166304 248.283771 
L 413.430652 248.754845 
L 414.279783 249.22061 
L 415.128913 249.991313 
L 416.261087 251.442394 
L 417.676304 253.427348 
L 418.525435 254.406845 
L 419.657609 255.315028 
L 419.657609 255.315028 
" style="fill:none;opacity:0.4;stroke:#000000;stroke-linecap:square;stroke-width:1.5;"/>
   </g>
   <g id="line2d_26">
    <path clip-path="url(#p4fb5ab86a3)" d="M 333.329348 255.849739 
L 335.027609 255.258238 
L 337.575 254.087078 
L 338.990217 253.242265 
L 340.122391 252.309127 
L 341.254565 251.056846 
L 342.386739 249.470254 
L 343.801957 247.0566 
L 345.217174 244.176051 
L 346.632391 240.739461 
L 348.047609 236.657911 
L 350.028913 230.141859 
L 354.274565 215.374199 
L 355.406739 210.663666 
L 356.538913 204.991404 
L 357.671087 197.872768 
L 358.803261 189.024436 
L 360.218478 175.873714 
L 365.879348 120.645389 
L 367.011522 112.975982 
L 367.860652 108.74304 
L 368.709783 105.79924 
L 369.27587 104.502759 
L 369.841957 103.697371 
L 370.408043 103.349537 
L 370.97413 103.426562 
L 371.540217 103.8899 
L 372.106304 104.686091 
L 372.955435 106.332894 
L 374.936739 110.49116 
L 376.068913 112.254844 
L 376.918043 113.604427 
L 377.48413 114.807084 
L 378.050217 116.434611 
L 378.616304 118.589669 
L 379.465435 122.84895 
L 380.597609 130.000644 
L 383.145 146.656331 
L 384.560217 154.170352 
L 386.541522 163.298072 
L 389.371957 175.385104 
L 391.070217 181.733311 
L 392.202391 185.225779 
L 395.598913 194.848954 
L 396.731087 199.518536 
L 398.146304 206.653829 
L 401.82587 226.1082 
L 403.241087 232.350718 
L 404.373261 236.540565 
L 405.505435 239.936074 
L 406.637609 242.630866 
L 407.769783 244.80184 
L 408.901957 246.546606 
L 410.03413 247.866695 
L 411.166304 248.786209 
L 412.298478 249.406747 
L 413.713696 249.921876 
L 415.128913 250.206011 
L 416.827174 250.269098 
L 419.091522 250.327228 
L 420.506739 250.641319 
L 421.921957 251.232907 
L 428.148913 254.482286 
L 428.148913 254.482286 
" style="fill:none;opacity:0.5;stroke:#ba4246;stroke-dasharray:5.55,2.4;stroke-dashoffset:0;stroke-width:1.5;"/>
   </g>
   <g id="line2d_27">
    <path clip-path="url(#p4fb5ab86a3)" d="M 408.760435 256.32 
L 408.760435 123.264 
" style="fill:none;opacity:0.5;stroke:#ba4246;stroke-dasharray:5.55,2.4;stroke-dashoffset:0;stroke-width:1.5;"/>
   </g>
   <g id="line2d_28">
    <path clip-path="url(#p4fb5ab86a3)" d="M 333.612391 256.023078 
L 335.310652 255.588136 
L 337.291957 254.809716 
L 340.688478 253.207262 
L 342.103696 252.291958 
L 343.23587 251.227684 
L 344.085 250.115299 
L 344.93413 248.638014 
L 345.783261 246.717488 
L 346.632391 244.303415 
L 347.764565 240.325517 
L 349.179783 234.384654 
L 351.161087 225.036104 
L 352.859348 216.152222 
L 354.557609 206.113188 
L 356.821957 191.188888 
L 361.916739 156.770292 
L 363.331957 149.081441 
L 364.747174 142.420691 
L 366.162391 136.649289 
L 367.577609 131.814105 
L 368.709783 128.827168 
L 369.558913 127.218705 
L 370.408043 126.167416 
L 370.97413 125.746576 
L 371.823261 125.453549 
L 372.672391 125.454432 
L 373.804565 125.738737 
L 374.936739 126.266243 
L 376.068913 127.076312 
L 378.616304 129.225225 
L 379.465435 129.544142 
L 381.163696 129.880212 
L 381.729783 130.239618 
L 382.29587 130.870451 
L 382.861957 131.814635 
L 383.711087 133.815681 
L 384.560217 136.425549 
L 385.692391 140.66989 
L 386.824565 145.745408 
L 388.239783 153.342983 
L 393.051522 181.130657 
L 397.01413 200.774503 
L 401.259783 222.880966 
L 402.391957 227.432177 
L 403.52413 230.988804 
L 404.656304 233.647932 
L 405.788478 235.590052 
L 406.920652 237.031699 
L 409.468043 239.921186 
L 410.600217 241.705199 
L 412.015435 244.501939 
L 413.996739 248.412549 
L 414.84587 249.690614 
L 415.695 250.639554 
L 416.54413 251.282822 
L 417.393261 251.684909 
L 418.808478 252.04235 
L 421.638913 252.639747 
L 423.337174 253.253257 
L 427.582826 255.145486 
L 429.847174 255.719598 
L 433.243696 255.842909 
L 435.508043 255.878237 
L 436.640217 255.968907 
L 436.640217 255.968907 
" style="fill:none;stroke:#ba4246;stroke-linecap:square;stroke-width:1.5;"/>
   </g>
   <g id="line2d_29">
    <path clip-path="url(#p4fb5ab86a3)" d="M 409.609565 256.32 
L 409.609565 123.264 
" style="fill:none;stroke:#ba4246;stroke-linecap:square;stroke-width:1.5;"/>
   </g>
   <g id="patch_8">
    <path d="M 329.791304 256.32 
L 329.791304 34.56 
" style="fill:none;stroke:#000000;stroke-linecap:square;stroke-linejoin:miter;stroke-width:0.8;"/>
   </g>
   <g id="patch_9">
    <path d="M 499.617391 256.32 
L 499.617391 34.56 
" style="fill:none;stroke:#000000;stroke-linecap:square;stroke-linejoin:miter;stroke-width:0.8;"/>
   </g>
   <g id="patch_10">
    <path d="M 329.791304 256.32 
L 499.617391 256.32 
" style="fill:none;stroke:#000000;stroke-linecap:square;stroke-linejoin:miter;stroke-width:0.8;"/>
   </g>
   <g id="patch_11">
    <path d="M 329.791304 34.56 
L 499.617391 34.56 
" style="fill:none;stroke:#000000;stroke-linecap:square;stroke-linejoin:miter;stroke-width:0.8;"/>
   </g>
   <g id="text_24">
    <!-- 96 -->
    <g style="opacity:0.4;" transform="translate(414.704348 53.04)scale(0.1 -0.1)">
     <use xlink:href="#DejaVuSans-39"/>
     <use x="63.623047" xlink:href="#DejaVuSans-36"/>
    </g>
   </g>
   <g id="text_25">
    <!-- 138.60 cm -->
    <g style="opacity:0.4;" transform="translate(443.008696 53.04)scale(0.1 -0.1)">
     <use xlink:href="#DejaVuSans-31"/>
     <use x="63.623047" xlink:href="#DejaVuSans-33"/>
     <use x="127.246094" xlink:href="#DejaVuSans-38"/>
     <use x="190.869141" xlink:href="#DejaVuSans-2e"/>
     <use x="222.65625" xlink:href="#DejaVuSans-36"/>
     <use x="286.279297" xlink:href="#DejaVuSans-30"/>
     <use x="349.902344" xlink:href="#DejaVuSans-20"/>
     <use x="381.689453" xlink:href="#DejaVuSans-63"/>
     <use x="436.669922" xlink:href="#DejaVuSans-6d"/>
    </g>
   </g>
   <g id="text_26">
    <!-- 85 -->
    <g style="fill:#ba4246;opacity:0.5;" transform="translate(414.704348 71.52)scale(0.1 -0.1)">
     <use xlink:href="#DejaVuSans-38"/>
     <use x="63.623047" xlink:href="#DejaVuSans-35"/>
    </g>
   </g>
   <g id="text_27">
    <!-- 143.32 -->
    <g style="fill:#ba4246;opacity:0.5;" transform="translate(443.008696 71.52)scale(0.1 -0.1)">
     <use xlink:href="#DejaVuSans-31"/>
     <use x="63.623047" xlink:href="#DejaVuSans-34"/>
     <use x="127.246094" xlink:href="#DejaVuSans-33"/>
     <use x="190.869141" xlink:href="#DejaVuSans-2e"/>
     <use x="222.65625" xlink:href="#DejaVuSans-33"/>
     <use x="286.279297" xlink:href="#DejaVuSans-32"/>
    </g>
   </g>
   <g id="text_28">
    <!-- 119 -->
    <g style="fill:#ba4246;" transform="translate(414.704348 90)scale(0.1 -0.1)">
     <use xlink:href="#DejaVuSans-31"/>
     <use x="63.623047" xlink:href="#DejaVuSans-31"/>
     <use x="127.246094" xlink:href="#DejaVuSans-39"/>
    </g>
   </g>
   <g id="text_29">
    <!-- 194.83 -->
    <g style="fill:#ba4246;" transform="translate(443.008696 90)scale(0.1 -0.1)">
     <use xlink:href="#DejaVuSans-31"/>
     <use x="63.623047" xlink:href="#DejaVuSans-39"/>
     <use x="127.246094" xlink:href="#DejaVuSans-34"/>
     <use x="190.869141" xlink:href="#DejaVuSans-2e"/>
     <use x="222.65625" xlink:href="#DejaVuSans-38"/>
     <use x="286.279297" xlink:href="#DejaVuSans-33"/>
    </g>
   </g>
  </g>
  <g id="axes_3">
   <g id="patch_12">
    <path d="M 533.582609 256.32 
L 703.408696 256.32 
L 703.408696 34.56 
L 533.582609 34.56 
z
" style="fill:#ffffff;"/>
   </g>
   <g id="matplotlib.axis_4">
    <g id="xtick_9">
     <g id="line2d_30">
      <g>
       <use style="stroke:#000000;stroke-width:0.8;" x="533.582609" xlink:href="#m042dc40e2e" y="256.32"/>
      </g>
     </g>
     <g id="text_30">
      <!-- 0 -->
      <g transform="translate(530.401359 270.918437)scale(0.1 -0.1)">
       <use xlink:href="#DejaVuSans-30"/>
      </g>
     </g>
    </g>
    <g id="xtick_10">
     <g id="line2d_31">
      <g>
       <use style="stroke:#000000;stroke-width:0.8;" x="590.191304" xlink:href="#m042dc40e2e" y="256.32"/>
      </g>
     </g>
     <g id="text_31">
      <!-- 20 -->
      <g transform="translate(583.828804 270.918437)scale(0.1 -0.1)">
       <use xlink:href="#DejaVuSans-32"/>
       <use x="63.623047" xlink:href="#DejaVuSans-30"/>
      </g>
     </g>
    </g>
    <g id="xtick_11">
     <g id="line2d_32">
      <g>
       <use style="stroke:#000000;stroke-width:0.8;" x="646.8" xlink:href="#m042dc40e2e" y="256.32"/>
      </g>
     </g>
     <g id="text_32">
      <!-- 40 -->
      <g transform="translate(640.4375 270.918437)scale(0.1 -0.1)">
       <use xlink:href="#DejaVuSans-34"/>
       <use x="63.623047" xlink:href="#DejaVuSans-30"/>
      </g>
     </g>
    </g>
    <g id="xtick_12">
     <g id="line2d_33">
      <g>
       <use style="stroke:#000000;stroke-width:0.8;" x="703.408696" xlink:href="#m042dc40e2e" y="256.32"/>
      </g>
     </g>
     <g id="text_33">
      <!-- 60 -->
      <g transform="translate(697.046196 270.918437)scale(0.1 -0.1)">
       <use xlink:href="#DejaVuSans-36"/>
       <use x="63.623047" xlink:href="#DejaVuSans-30"/>
      </g>
     </g>
    </g>
   </g>
   <g id="line2d_34">
    <path clip-path="url(#pf05a027d0f)" d="M 609.579783 256.32 
L 609.579783 34.56 
" style="fill:none;opacity:0.4;stroke:#000000;stroke-dasharray:1.5,2.475;stroke-dashoffset:0;stroke-width:1.5;"/>
   </g>
   <g id="line2d_35">
    <path clip-path="url(#pf05a027d0f)" d="M 603.494348 256.32 
L 603.494348 123.264 
" style="fill:none;opacity:0.4;stroke:#000000;stroke-linecap:square;stroke-width:1.5;"/>
   </g>
   <g id="line2d_36">
    <path clip-path="url(#pf05a027d0f)" d="M 536.271522 256.066163 
L 537.403696 255.699634 
L 538.252826 255.255413 
L 539.668043 254.191623 
L 543.064565 251.025077 
L 544.479783 249.651523 
L 545.328913 248.595153 
L 546.178043 247.203977 
L 547.027174 245.351658 
L 547.876304 242.943949 
L 549.008478 238.86005 
L 550.989783 230.374116 
L 552.405 224.689371 
L 554.103261 218.916853 
L 555.518478 213.873922 
L 556.367609 210.074035 
L 557.499783 203.780827 
L 559.481087 190.772461 
L 563.160652 166.040551 
L 564.57587 154.09463 
L 568.538478 118.825514 
L 569.953696 108.408506 
L 570.802826 103.199709 
L 571.651957 99.396661 
L 572.218043 97.867228 
L 572.78413 97.174277 
L 573.067174 97.111314 
L 573.350217 97.205795 
L 573.916304 97.737559 
L 575.331522 99.467461 
L 575.897609 99.83263 
L 577.59587 100.423344 
L 578.161957 101.088593 
L 578.728043 102.243029 
L 579.29413 103.924313 
L 580.143261 107.346403 
L 581.275435 113.127997 
L 583.822826 127.935879 
L 585.80413 140.439785 
L 587.502391 151.224331 
L 588.634565 156.861801 
L 591.748043 170.156692 
L 593.163261 178.636778 
L 596.276739 197.953655 
L 601.937609 229.802821 
L 603.069783 234.247336 
L 604.485 238.709232 
L 606.183261 243.325332 
L 607.315435 245.866522 
L 608.447609 247.895349 
L 609.862826 249.901423 
L 611.278043 251.511763 
L 612.410217 252.460858 
L 613.259348 252.931544 
L 614.674565 253.376042 
L 616.372826 253.871485 
L 617.788043 254.520881 
L 620.335435 255.66789 
L 620.335435 255.66789 
" style="fill:none;opacity:0.4;stroke:#000000;stroke-linecap:square;stroke-width:1.5;"/>
   </g>
   <g id="line2d_37">
    <path clip-path="url(#pf05a027d0f)" d="M 537.120652 255.874707 
L 538.818913 255.337662 
L 540.517174 254.581398 
L 542.781522 253.300564 
L 545.04587 251.817954 
L 546.178043 250.809305 
L 547.027174 249.75116 
L 547.876304 248.292444 
L 548.725435 246.353474 
L 549.857609 243.055467 
L 551.272826 238.11894 
L 552.971087 231.408861 
L 554.386304 224.880722 
L 555.518478 218.694688 
L 556.933696 209.711913 
L 560.613261 183.998406 
L 562.311522 170.780022 
L 563.726739 157.895632 
L 565.425 139.971268 
L 567.689348 115.801304 
L 568.821522 106.153977 
L 569.670652 100.395351 
L 570.519783 95.900874 
L 571.08587 93.670389 
L 571.651957 92.133891 
L 572.218043 91.328007 
L 572.501087 91.185922 
L 572.78413 91.195466 
L 573.350217 91.557594 
L 574.765435 92.826028 
L 575.331522 92.907852 
L 575.897609 92.708636 
L 576.746739 92.338172 
L 577.029783 92.339619 
L 577.312826 92.462419 
L 577.59587 92.734471 
L 578.161957 93.797282 
L 578.728043 95.579362 
L 579.577174 99.399412 
L 580.992391 107.437376 
L 582.690652 118.30643 
L 584.10587 128.942874 
L 586.653261 148.653821 
L 588.068478 157.596664 
L 590.332826 170.331498 
L 594.578478 192.866699 
L 600.239348 220.201624 
L 601.654565 225.871119 
L 605.900217 241.38877 
L 607.032391 245.587169 
L 607.881522 248.054058 
L 608.730652 249.759094 
L 609.296739 250.502871 
L 609.862826 250.995896 
L 610.711957 251.403461 
L 614.108478 252.196533 
L 615.240652 252.910122 
L 616.938913 254.128569 
L 618.071087 254.73899 
L 620.052391 255.41374 
L 620.052391 255.41374 
" style="fill:none;opacity:0.5;stroke:#087e8b;stroke-dasharray:5.55,2.4;stroke-dashoffset:0;stroke-width:1.5;"/>
   </g>
   <g id="line2d_38">
    <path clip-path="url(#pf05a027d0f)" d="M 603.494348 256.32 
L 603.494348 123.264 
" style="fill:none;opacity:0.5;stroke:#087e8b;stroke-dasharray:5.55,2.4;stroke-dashoffset:0;stroke-width:1.5;"/>
   </g>
   <g id="line2d_39">
    <path clip-path="url(#pf05a027d0f)" d="M 536.271522 256.040271 
L 537.686739 255.636121 
L 538.818913 255.106222 
L 540.23413 254.161092 
L 541.649348 252.904858 
L 543.064565 251.33382 
L 544.479783 249.38125 
L 545.611957 247.411308 
L 546.74413 244.897953 
L 547.876304 241.689032 
L 549.008478 237.748113 
L 550.423696 231.960708 
L 552.405 222.820424 
L 556.084565 204.498029 
L 558.348913 192.471151 
L 560.330217 180.794093 
L 562.594565 166.19067 
L 564.858913 150.20398 
L 568.255435 125.753209 
L 569.104565 121.007759 
L 569.953696 117.490754 
L 570.519783 115.915197 
L 571.08587 114.943516 
L 571.651957 114.506453 
L 572.218043 114.490491 
L 572.78413 114.754546 
L 574.765435 115.973536 
L 575.614565 116.110038 
L 577.029783 116.185886 
L 577.59587 116.427267 
L 578.161957 116.912477 
L 578.728043 117.686673 
L 579.577174 119.406504 
L 580.426304 121.722761 
L 581.558478 125.510776 
L 582.973696 131.098563 
L 584.388913 137.731436 
L 585.80413 145.646641 
L 588.068478 160.101237 
L 590.049783 172.301094 
L 591.748043 181.449262 
L 593.729348 190.906947 
L 595.993696 200.631861 
L 600.805435 220.003496 
L 601.937609 223.677002 
L 603.069783 226.556563 
L 604.201957 228.773191 
L 608.447609 236.258193 
L 611.278043 242.117067 
L 612.410217 243.882446 
L 613.542391 245.215244 
L 614.674565 246.227454 
L 616.089783 247.204717 
L 618.071087 248.255619 
L 620.335435 249.484902 
L 624.298043 251.992536 
L 625.430217 252.33041 
L 626.845435 252.473764 
L 629.109783 252.643292 
L 630.241957 252.956981 
L 631.37413 253.450039 
L 633.355435 254.425644 
L 634.770652 254.925077 
L 635.902826 255.140825 
L 637.318043 255.227579 
L 640.714565 255.071934 
L 644.111087 254.934037 
L 646.375435 255.099896 
L 652.602391 255.817448 
L 662.22587 256.053475 
L 662.22587 256.053475 
" style="fill:none;stroke:#087e8b;stroke-linecap:square;stroke-width:1.5;"/>
   </g>
   <g id="line2d_40">
    <path clip-path="url(#pf05a027d0f)" d="M 616.514348 256.32 
L 616.514348 123.264 
" style="fill:none;stroke:#087e8b;stroke-linecap:square;stroke-width:1.5;"/>
   </g>
   <g id="patch_13">
    <path d="M 533.582609 256.32 
L 533.582609 34.56 
" style="fill:none;stroke:#000000;stroke-linecap:square;stroke-linejoin:miter;stroke-width:0.8;"/>
   </g>
   <g id="patch_14">
    <path d="M 703.408696 256.32 
L 703.408696 34.56 
" style="fill:none;stroke:#000000;stroke-linecap:square;stroke-linejoin:miter;stroke-width:0.8;"/>
   </g>
   <g id="patch_15">
    <path d="M 533.582609 256.32 
L 703.408696 256.32 
" style="fill:none;stroke:#000000;stroke-linecap:square;stroke-linejoin:miter;stroke-width:0.8;"/>
   </g>
   <g id="patch_16">
    <path d="M 533.582609 34.56 
L 703.408696 34.56 
" style="fill:none;stroke:#000000;stroke-linecap:square;stroke-linejoin:miter;stroke-width:0.8;"/>
   </g>
   <g id="text_34">
    <!-- 74 -->
    <g style="opacity:0.4;" transform="translate(618.495652 53.04)scale(0.1 -0.1)">
     <use xlink:href="#DejaVuSans-37"/>
     <use x="63.623047" xlink:href="#DejaVuSans-34"/>
    </g>
   </g>
   <g id="text_35">
    <!-- 104.39 cm -->
    <g style="opacity:0.4;" transform="translate(646.8 53.04)scale(0.1 -0.1)">
     <use xlink:href="#DejaVuSans-31"/>
     <use x="63.623047" xlink:href="#DejaVuSans-30"/>
     <use x="127.246094" xlink:href="#DejaVuSans-34"/>
     <use x="190.869141" xlink:href="#DejaVuSans-2e"/>
     <use x="222.65625" xlink:href="#DejaVuSans-33"/>
     <use x="286.279297" xlink:href="#DejaVuSans-39"/>
     <use x="349.902344" xlink:href="#DejaVuSans-20"/>
     <use x="381.689453" xlink:href="#DejaVuSans-63"/>
     <use x="436.669922" xlink:href="#DejaVuSans-6d"/>
    </g>
   </g>
   <g id="text_36">
    <!-- 64 -->
    <g style="fill:#087e8b;opacity:0.5;" transform="translate(618.495652 71.52)scale(0.1 -0.1)">
     <use xlink:href="#DejaVuSans-36"/>
     <use x="63.623047" xlink:href="#DejaVuSans-34"/>
    </g>
   </g>
   <g id="text_37">
    <!-- 86.02 -->
    <g style="fill:#087e8b;opacity:0.5;" transform="translate(646.8 71.52)scale(0.1 -0.1)">
     <use xlink:href="#DejaVuSans-38"/>
     <use x="63.623047" xlink:href="#DejaVuSans-36"/>
     <use x="127.246094" xlink:href="#DejaVuSans-2e"/>
     <use x="159.033203" xlink:href="#DejaVuSans-30"/>
     <use x="222.65625" xlink:href="#DejaVuSans-32"/>
    </g>
   </g>
   <g id="text_38">
    <!-- 121 -->
    <g style="fill:#087e8b;" transform="translate(618.495652 90)scale(0.1 -0.1)">
     <use xlink:href="#DejaVuSans-31"/>
     <use x="63.623047" xlink:href="#DejaVuSans-32"/>
     <use x="127.246094" xlink:href="#DejaVuSans-31"/>
    </g>
   </g>
   <g id="text_39">
    <!-- 180.28 -->
    <g style="fill:#087e8b;" transform="translate(646.8 90)scale(0.1 -0.1)">
     <use xlink:href="#DejaVuSans-31"/>
     <use x="63.623047" xlink:href="#DejaVuSans-38"/>
     <use x="127.246094" xlink:href="#DejaVuSans-30"/>
     <use x="190.869141" xlink:href="#DejaVuSans-2e"/>
     <use x="222.65625" xlink:href="#DejaVuSans-32"/>
     <use x="286.279297" xlink:href="#DejaVuSans-38"/>
    </g>
   </g>
  </g>
  <g id="axes_4">
   <g id="patch_17">
    <path d="M 737.373913 256.32 
L 907.2 256.32 
L 907.2 34.56 
L 737.373913 34.56 
z
" style="fill:#ffffff;"/>
   </g>
   <g id="matplotlib.axis_5">
    <g id="xtick_13">
     <g id="line2d_41">
      <g>
       <use style="stroke:#000000;stroke-width:0.8;" x="737.373913" xlink:href="#m042dc40e2e" y="256.32"/>
      </g>
     </g>
     <g id="text_40">
      <!-- 0 -->
      <g transform="translate(734.192663 270.918437)scale(0.1 -0.1)">
       <use xlink:href="#DejaVuSans-30"/>
      </g>
     </g>
    </g>
    <g id="xtick_14">
     <g id="line2d_42">
      <g>
       <use style="stroke:#000000;stroke-width:0.8;" x="793.982609" xlink:href="#m042dc40e2e" y="256.32"/>
      </g>
     </g>
     <g id="text_41">
      <!-- 20 -->
      <g transform="translate(787.620109 270.918437)scale(0.1 -0.1)">
       <use xlink:href="#DejaVuSans-32"/>
       <use x="63.623047" xlink:href="#DejaVuSans-30"/>
      </g>
     </g>
    </g>
    <g id="xtick_15">
     <g id="line2d_43">
      <g>
       <use style="stroke:#000000;stroke-width:0.8;" x="850.591304" xlink:href="#m042dc40e2e" y="256.32"/>
      </g>
     </g>
     <g id="text_42">
      <!-- 40 -->
      <g transform="translate(844.228804 270.918437)scale(0.1 -0.1)">
       <use xlink:href="#DejaVuSans-34"/>
       <use x="63.623047" xlink:href="#DejaVuSans-30"/>
      </g>
     </g>
    </g>
    <g id="xtick_16">
     <g id="line2d_44">
      <g>
       <use style="stroke:#000000;stroke-width:0.8;" x="907.2" xlink:href="#m042dc40e2e" y="256.32"/>
      </g>
     </g>
     <g id="text_43">
      <!-- 60 -->
      <g transform="translate(900.8375 270.918437)scale(0.1 -0.1)">
       <use xlink:href="#DejaVuSans-36"/>
       <use x="63.623047" xlink:href="#DejaVuSans-30"/>
      </g>
     </g>
    </g>
   </g>
   <g id="line2d_45">
    <path clip-path="url(#p5efe9cf660)" d="M 813.371087 256.32 
L 813.371087 34.56 
" style="fill:none;opacity:0.4;stroke:#000000;stroke-dasharray:1.5,2.475;stroke-dashoffset:0;stroke-width:1.5;"/>
   </g>
   <g id="line2d_46">
    <path clip-path="url(#p5efe9cf660)" d="M 812.946522 256.32 
L 812.946522 123.264 
" style="fill:none;opacity:0.4;stroke:#000000;stroke-linecap:square;stroke-width:1.5;"/>
   </g>
   <g id="line2d_47">
    <path clip-path="url(#p5efe9cf660)" d="M 746.006739 256.024599 
L 748.55413 255.576606 
L 749.969348 255.133212 
L 751.101522 254.49426 
L 751.950652 253.712035 
L 753.082826 252.069158 
L 753.931957 250.27642 
L 754.781087 247.959081 
L 755.913261 244.150588 
L 758.177609 236.150615 
L 759.026739 233.890009 
L 760.158913 231.611891 
L 761.57413 228.842037 
L 762.423261 226.471885 
L 763.272391 223.179907 
L 764.121522 218.839794 
L 765.253696 211.525924 
L 766.668913 200.583722 
L 768.933261 180.905458 
L 771.197609 161.26462 
L 772.329783 153.428827 
L 773.461957 147.312815 
L 776.575435 132.843928 
L 777.707609 128.234873 
L 778.556739 125.652264 
L 779.122826 124.528942 
L 779.688913 123.987304 
L 779.971957 123.952487 
L 780.255 124.076391 
L 780.821087 124.767267 
L 781.670217 126.581334 
L 782.519348 128.393929 
L 782.802391 128.76558 
L 783.085435 128.938361 
L 783.368478 128.871213 
L 783.651522 128.533001 
L 783.934565 127.90498 
L 784.500652 125.776099 
L 785.066739 122.625949 
L 787.331087 108.24222 
L 787.897174 106.341421 
L 788.180217 105.791391 
L 788.463261 105.497132 
L 788.746304 105.438567 
L 789.029348 105.589095 
L 789.595435 106.394049 
L 790.444565 108.410035 
L 791.859783 112.68827 
L 792.708913 115.771239 
L 793.558043 119.634306 
L 794.407174 124.537436 
L 795.822391 134.506112 
L 797.237609 144.368588 
L 798.369783 150.861882 
L 800.351087 160.404952 
L 801.766304 167.678699 
L 803.464565 177.708373 
L 807.710217 204.256252 
L 809.125435 215.557482 
L 811.106739 231.398013 
L 811.95587 236.744445 
L 813.088043 241.916738 
L 813.937174 244.415585 
L 814.503261 245.535583 
L 815.069348 246.295532 
L 815.635435 246.749115 
L 816.484565 246.947256 
L 816.767609 246.906164 
L 818.748913 246.059956 
L 819.598043 246.088633 
L 820.16413 246.43855 
L 820.447174 246.718106 
L 821.296304 247.910726 
L 823.560652 251.833625 
L 824.97587 253.421282 
L 825.541957 253.81094 
L 827.806304 254.768866 
L 827.806304 254.768866 
" style="fill:none;opacity:0.4;stroke:#000000;stroke-linecap:square;stroke-width:1.5;"/>
   </g>
   <g id="line2d_48">
    <path clip-path="url(#p5efe9cf660)" d="M 740.628913 256.190602 
L 744.308478 255.971464 
L 746.289783 255.656987 
L 747.705 255.20233 
L 748.837174 254.634484 
L 750.535435 253.485536 
L 751.667609 252.511161 
L 752.516739 251.574983 
L 753.36587 250.349747 
L 754.215 248.742209 
L 755.347174 245.955614 
L 758.460652 237.412993 
L 759.309783 235.895336 
L 761.291087 232.854207 
L 762.140217 230.86267 
L 762.989348 228.147047 
L 764.121522 223.503173 
L 765.253696 217.879078 
L 766.38587 210.992856 
L 767.235 204.505885 
L 768.08413 196.504222 
L 769.216304 183.422975 
L 771.763696 151.776631 
L 772.612826 144.815637 
L 773.178913 142.035886 
L 773.461957 141.217749 
L 773.745 140.758304 
L 774.028043 140.626706 
L 774.311087 140.782909 
L 774.877174 141.766539 
L 775.726304 144.141307 
L 776.575435 146.483163 
L 777.141522 147.603799 
L 777.707609 148.240589 
L 778.273696 148.39005 
L 778.839783 148.116136 
L 779.40587 147.521423 
L 780.538043 145.813821 
L 783.368478 140.94911 
L 784.500652 139.003659 
L 785.066739 138.281747 
L 785.632826 137.86295 
L 786.198913 137.780913 
L 786.765 137.969417 
L 787.61413 138.367538 
L 788.180217 138.353222 
L 788.463261 138.171929 
L 789.029348 137.352367 
L 789.595435 135.856031 
L 790.161522 133.697668 
L 791.010652 129.45193 
L 792.708913 119.18451 
L 793.841087 112.714056 
L 794.690217 109.093936 
L 795.256304 107.607719 
L 795.539348 107.187915 
L 795.822391 106.992298 
L 796.105435 107.021174 
L 796.388478 107.270739 
L 796.954565 108.402952 
L 797.520652 110.320351 
L 798.086739 112.956975 
L 798.93587 118.139609 
L 800.068043 126.940386 
L 802.615435 149.785497 
L 804.596739 168.833726 
L 806.861087 191.103742 
L 807.993261 200.197677 
L 809.408478 209.405935 
L 812.238913 227.125828 
L 813.371087 233.772904 
L 814.220217 237.818837 
L 815.069348 241.038565 
L 816.201522 244.46342 
L 817.333696 247.297948 
L 818.748913 249.920483 
L 819.881087 251.057193 
L 820.730217 251.427215 
L 823.277609 251.998833 
L 823.560652 252.13304 
L 826.108043 254.030157 
L 826.108043 254.030157 
" style="fill:none;opacity:0.5;stroke:#701c6f;stroke-dasharray:5.55,2.4;stroke-dashoffset:0;stroke-width:1.5;"/>
   </g>
   <g id="line2d_49">
    <path clip-path="url(#p5efe9cf660)" d="M 812.380435 256.32 
L 812.380435 123.264 
" style="fill:none;opacity:0.5;stroke:#701c6f;stroke-dasharray:5.55,2.4;stroke-dashoffset:0;stroke-width:1.5;"/>
   </g>
   <g id="line2d_50">
    <path clip-path="url(#p5efe9cf660)" d="M 742.04413 255.720486 
L 743.176304 255.265635 
L 744.308478 254.583075 
L 745.440652 253.628111 
L 746.572826 252.381416 
L 747.988043 250.440113 
L 749.686304 247.679499 
L 752.233696 243.043108 
L 755.347174 237.426505 
L 757.611522 233.927914 
L 759.309783 231.160086 
L 760.725 228.417435 
L 763.555435 222.239601 
L 765.819783 216.957048 
L 767.235 213.050261 
L 768.933261 207.557416 
L 770.914565 200.321403 
L 773.178913 191.193264 
L 775.443261 181.099871 
L 777.707609 170.035244 
L 781.670217 150.311585 
L 782.802391 146.046462 
L 783.651522 143.585866 
L 784.500652 141.770055 
L 785.349783 140.531489 
L 786.198913 139.747168 
L 787.048043 139.266248 
L 788.746304 138.662856 
L 791.010652 137.7841 
L 796.105435 135.641754 
L 796.954565 135.572882 
L 797.520652 135.766313 
L 798.086739 136.253549 
L 798.652826 137.129796 
L 799.218913 138.484894 
L 799.785 140.390039 
L 800.63413 144.353735 
L 801.483261 149.581809 
L 802.898478 160.242733 
L 804.879783 175.428569 
L 806.011957 182.560819 
L 807.14413 188.369421 
L 808.842391 195.674617 
L 811.95587 208.99058 
L 813.937174 217.138 
L 815.352391 222.133626 
L 817.050652 227.361082 
L 819.031957 232.779082 
L 820.16413 235.376652 
L 821.013261 236.926211 
L 821.862391 238.053085 
L 822.711522 238.730928 
L 823.277609 238.944563 
L 824.126739 238.961194 
L 824.97587 238.716112 
L 827.240217 237.897558 
L 828.089348 237.893706 
L 828.938478 238.147554 
L 829.787609 238.63294 
L 831.202826 239.766106 
L 833.750217 241.859726 
L 835.165435 242.712856 
L 838.561957 244.476019 
L 839.69413 245.483499 
L 840.826304 246.820099 
L 844.50587 251.622459 
L 846.20413 252.985608 
L 847.053261 253.385164 
L 847.902391 253.634172 
L 851.865 254.263035 
L 855.827609 255.505641 
L 855.827609 255.505641 
" style="fill:none;stroke:#701c6f;stroke-linecap:square;stroke-width:1.5;"/>
   </g>
   <g id="line2d_51">
    <path clip-path="url(#p5efe9cf660)" d="M 836.156087 256.32 
L 836.156087 123.264 
" style="fill:none;stroke:#701c6f;stroke-linecap:square;stroke-width:1.5;"/>
   </g>
   <g id="patch_18">
    <path d="M 737.373913 256.32 
L 737.373913 34.56 
" style="fill:none;stroke:#000000;stroke-linecap:square;stroke-linejoin:miter;stroke-width:0.8;"/>
   </g>
   <g id="patch_19">
    <path d="M 907.2 256.32 
L 907.2 34.56 
" style="fill:none;stroke:#000000;stroke-linecap:square;stroke-linejoin:miter;stroke-width:0.8;"/>
   </g>
   <g id="patch_20">
    <path d="M 737.373913 256.32 
L 907.2 256.32 
" style="fill:none;stroke:#000000;stroke-linecap:square;stroke-linejoin:miter;stroke-width:0.8;"/>
   </g>
   <g id="patch_21">
    <path d="M 737.373913 34.56 
L 907.2 34.56 
" style="fill:none;stroke:#000000;stroke-linecap:square;stroke-linejoin:miter;stroke-width:0.8;"/>
   </g>
   <g id="text_44">
    <!-- 37 -->
    <g style="opacity:0.4;" transform="translate(822.286957 53.04)scale(0.1 -0.1)">
     <use xlink:href="#DejaVuSans-33"/>
     <use x="63.623047" xlink:href="#DejaVuSans-37"/>
    </g>
   </g>
   <g id="text_45">
    <!-- 37.20 cm -->
    <g style="opacity:0.4;" transform="translate(850.591304 53.04)scale(0.1 -0.1)">
     <use xlink:href="#DejaVuSans-33"/>
     <use x="63.623047" xlink:href="#DejaVuSans-37"/>
     <use x="127.246094" xlink:href="#DejaVuSans-2e"/>
     <use x="159.033203" xlink:href="#DejaVuSans-32"/>
     <use x="222.65625" xlink:href="#DejaVuSans-30"/>
     <use x="286.279297" xlink:href="#DejaVuSans-20"/>
     <use x="318.066406" xlink:href="#DejaVuSans-63"/>
     <use x="373.046875" xlink:href="#DejaVuSans-6d"/>
    </g>
   </g>
   <g id="text_46">
    <!-- 34 -->
    <g style="fill:#701c6f;opacity:0.5;" transform="translate(822.286957 71.52)scale(0.1 -0.1)">
     <use xlink:href="#DejaVuSans-33"/>
     <use x="63.623047" xlink:href="#DejaVuSans-34"/>
    </g>
   </g>
   <g id="text_47">
    <!-- 29.67 -->
    <g style="fill:#701c6f;opacity:0.5;" transform="translate(850.591304 71.52)scale(0.1 -0.1)">
     <use xlink:href="#DejaVuSans-32"/>
     <use x="63.623047" xlink:href="#DejaVuSans-39"/>
     <use x="127.246094" xlink:href="#DejaVuSans-2e"/>
     <use x="159.033203" xlink:href="#DejaVuSans-36"/>
     <use x="222.65625" xlink:href="#DejaVuSans-37"/>
    </g>
   </g>
   <g id="text_48">
    <!-- 57 -->
    <g style="fill:#701c6f;" transform="translate(822.286957 90)scale(0.1 -0.1)">
     <use xlink:href="#DejaVuSans-35"/>
     <use x="63.623047" xlink:href="#DejaVuSans-37"/>
    </g>
   </g>
   <g id="text_49">
    <!-- 58.44 -->
    <g style="fill:#701c6f;" transform="translate(850.591304 90)scale(0.1 -0.1)">
     <use xlink:href="#DejaVuSans-35"/>
     <use x="63.623047" xlink:href="#DejaVuSans-38"/>
     <use x="127.246094" xlink:href="#DejaVuSans-2e"/>
     <use x="159.033203" xlink:href="#DejaVuSans-34"/>
     <use x="222.65625" xlink:href="#DejaVuSans-34"/>
    </g>
   </g>
  </g>
 </g>
 <defs>
  <clipPath id="p947ddaabac">
   <rect height="221.76" width="169.826087" x="126" y="34.56"/>
  </clipPath>
  <clipPath id="p4fb5ab86a3">
   <rect height="221.76" width="169.826087" x="329.791304" y="34.56"/>
  </clipPath>
  <clipPath id="pf05a027d0f">
   <rect height="221.76" width="169.826087" x="533.582609" y="34.56"/>
  </clipPath>
  <clipPath id="p5efe9cf660">
   <rect height="221.76" width="169.826087" x="737.373913" y="34.56"/>
  </clipPath>
 </defs>
</svg>
